# xmcd CD database file
#
# Track frame offsets:
#	150
#	13197
#	28272
#	41116
#	56763
#	69301
#	83654
#	94696
#	108522
#	121197
#	134433
#	148730
#	161432
#	175611
#	190156
#	202907
#
# Disc length: 2910 seconds
#
# Revision: 0
# Processed by: cddbd v1.5.2PL0 Copyright (c) Steve Scherf et al.
# Submitted via: CDex 1.51
#
DISCID=d90b5c10
DTITLE=Various Artist - Jazz - The Essential Collection disc 2
DYEAR=1900
DGENRE=Jazz
TTITLE0=Fletcher Henderson and His Orchestra - Hop Off
TTITLE1=Louis Dumaine's Jazzola Eight - Franklin Street Blues
TTITLE2=Miff Mole and His Little Molers - Imagination
TTITLE3=Red Nichols - Bugle Call Rag
TTITLE4=Bel Selvin and His Orchestra - Oh Gee, Oh Joy
TTITLE5=Celestin's Original Tuxedo Jazz Orchestra - As You Like It
TTITLE6=Carmichael's Collegians - Walkin' The Dog
TTITLE7=Chick Webb and His Little Chicks - I Ain't Got Nobody
TTITLE8=Irving Aaronson and His New York Orchestra - Let's Misbehave
TTITLE9=McKinney's Cotton Pickers - Milenberg Joys
TTITLE10=Earl Hines - Fifty Seven Varieties
TTITLE11=Benny Carter - Charleston Is The Best Dance After All
TTITLE12=Fess Williams and His Royal Flush Orchestra - Hot Town
TTITLE13=Gil Rodin's Boys - It's So Good
TTITLE14=Benny Goodman - That's A Plenty
TTITLE15=Little Chocolate Dandies - Six Or Seven Times
EXTD=
EXTT0=
EXTT1=
EXTT2=
EXTT3=
EXTT4=
EXTT5=
EXTT6=
EXTT7=
EXTT8=
EXTT9=
EXTT10=
EXTT11=
EXTT12=
EXTT13=
EXTT14=
EXTT15=
PLAYORDER=
